<svg id="Layer_1" data-name="Layer 1" xmlns="http://www.w3.org/2000/svg" xmlns:xlink="http://www.w3.org/1999/xlink" viewBox="0 0 788.46 753.37"><defs><style>.cls-1{fill:none;}.cls-2{fill:url(#linear-gradient);}.cls-3{fill:url(#linear-gradient-2);}.cls-4{fill:#fff;}.cls-5,.cls-6{isolation:isolate;}.cls-5{fill:url(#linear-gradient-3);}.cls-6{fill:url(#linear-gradient-4);}.cls-7{clip-path:url(#clip-path);}</style><linearGradient id="linear-gradient" x1="376.68" y1="753.37" x2="376.68" gradientUnits="userSpaceOnUse"><stop offset="0" stop-color="#f77062"/><stop offset="1" stop-color="#fe5196"/></linearGradient><linearGradient id="linear-gradient-2" x1="684.23" y1="194.99" x2="774.47" y2="104.75" gradientUnits="userSpaceOnUse"><stop offset="0" stop-color="#f77062"/><stop offset="0.07" stop-color="#f96771"/><stop offset="0.17" stop-color="#fb5d82"/><stop offset="0.3" stop-color="#fd568d"/><stop offset="0.49" stop-color="#fe5294"/><stop offset="1" stop-color="#fe5196"/></linearGradient><linearGradient id="linear-gradient-3" x1="554.67" y1="450.24" x2="554.67" y2="298.87" gradientUnits="userSpaceOnUse"><stop offset="0" stop-color="#fb8797"/><stop offset="0.26" stop-color="#fb8a98" stop-opacity="0.99"/><stop offset="0.48" stop-color="#fc929b" stop-opacity="0.94"/><stop offset="0.69" stop-color="#fd9f9f" stop-opacity="0.87"/><stop offset="0.89" stop-color="#feb2a6" stop-opacity="0.77"/><stop offset="1" stop-color="#ffbeaa" stop-opacity="0.7"/></linearGradient><linearGradient id="linear-gradient-4" x1="381.05" y1="237.84" x2="553.99" y2="237.84" xlink:href="#linear-gradient-3"/><clipPath id="clip-path" transform="translate(-163.32 -163.32)"><circle class="cls-1" cx="540" cy="540" r="376.68"/></clipPath></defs><title>logoFinal</title><circle class="cls-2" cx="376.68" cy="376.68" r="376.68"/><polyline class="cls-3" points="726.09 236.85 660.51 134.98 788.46 118.74 726.09 236.85"/><polygon class="cls-4" points="398.79 375.85 406.09 385.87 485.31 334.98 478.84 325.19 398.79 375.85"/><path class="cls-4" d="M889.41,400.17c-3.54,6.48-28.32-17.38-46.79-43.62s-26.81-53.13-20.76-57.39,24.17,15.74,42.64,42S892.92,393.73,889.41,400.17Z" transform="translate(-163.32 -163.32)"/><path class="cls-4" d="M674.51,514.38l201-122.76L823.1,319.78,637.85,460C630.78,475.06,661.75,519.14,674.51,514.38Z" transform="translate(-163.32 -163.32)"/><polygon class="cls-5" points="558.71 379.14 512.46 449.85 514.88 450.24 596.31 382.69 596.88 298.87 558.38 322.39 558.71 379.14"/><polygon class="cls-6" points="463.1 245.56 381.05 266.99 381.7 264.53 472.14 208.69 553.99 236.33 517.22 264.33 463.1 245.56"/><g class="cls-7"><path class="cls-4" d="M163.32,634.58c136.46-.29,361.55-80.51,398.79-95.41l7.3,10C530,593,395.6,750.93,346.92,872.63,265.68,872.63,163.32,747.32,163.32,634.58Z" transform="translate(-163.32 -163.32)"/></g></svg>